#!OML:ASF H:\Terrain\Patient Classification 1\Animal1\Tuesday\Animal1.ASF
:FULLY-SPECIFIED
:DEGREES
846
root 5.11508 15.5151 0.675867 1.90673 47.1553 -13.9811
lowerback 13.0931 0.643333 1.97899
upperback 7.006 1.25456 1.4862
thorax 0.0184634 0.719601 0.271048
lowerneck -8.97549 0.887174 -1.47235
upperneck -10.7446 1.64358 2.00296
head -1.9016 0.945102 0.887415
rclavicle -1.07344e-014 3.10104e-014
rhumerus -3.98387 16.8982 4.18036
rradius 25.776
rwrist -40.0119
rhand -11.7738 4.65957
rfingers 7.12502
rthumb 14.275 -24.8298
lclavicle -1.07344e-014 3.10104e-014
lhumerus -6.56462 6.24955 4.57601
lradius 23.7627
lwrist -11.5547
lhand 6.95264 58.9686
lfingers 7.12502
lthumb 32.2306 86.1281
rfemur -33.9319 -13.6254 24.2674
rtibia 57.6538
rfoot -10.0753 -21.9608
rtoes 0.188842
lfemur -57.4981 19.7876 -23.9758
ltibia 51.9044
lfoot -21.4382 23.3249
ltoes 43.7805
847
root 5.22848 15.5514 0.728504 2.22205 47.9805 -13.5399
lowerback 13.0913 0.593753 1.39902
upperback 6.98107 1.12395 1.31176
thorax -0.0166633 0.642682 0.431976
lowerneck -9.27028 0.978372 -1.54258
upperneck -10.6455 1.77487 1.94648
head -1.82343 1.01851 0.883917
rclavicle 3.37934e-014 -1.59028e-014
rhumerus -4.20458 16.5509 4.38619
rradius 25.5508
rwrist -39.4315
rhand -12.1913 4.99395
rfingers 7.12502
rthumb 13.8726 -24.5234
lclavicle 3.37934e-014 -1.59028e-014
lhumerus -6.51017 5.90766 4.72185
lradius 23.7515
lwrist -11.2171
lhand 6.50871 58.9851
lfingers 7.12502
lthumb 31.8079 86.2294
rfemur -34.3531 -14.2171 23.604
rtibia 59.0893
rfoot -7.88366 -21.3915
rtoes 1.83116
lfemur -56.7885 19.0433 -24.3547
ltibia 51.5556
lfoot -21.2649 22.5766
ltoes 44.4413
848
root 5.34248 15.5806 0.779345 2.2724 48.7511 -13.415
lowerback 13.2209 0.683696 1.04738
upperback 6.79518 1.20415 1.22807
thorax -0.286664 0.67283 0.528083
lowerneck -8.93925 0.972278 -1.56722
upperneck -10.6797 1.76058 1.88617
head -1.88828 1.01096 0.867146
rclavicle 2.26615e-014 -4.77083e-015
rhumerus -4.79895 16.0531 4.67942
rradius 25.3441
rwrist -38.4848
rhand -11.9326 5.43315
rfingers 7.12502
rthumb 14.122 -24.0669
lclavicle 2.26615e-014 -4.77083e-015
lhumerus -6.24107 4.8436 5.06796
lradius 23.9467
lwrist -10.5457
lhand 6.12731 59.0957
lfingers 7.12502
lthumb 31.4446 86.4115
rfemur -34.9153 -14.7715 23.2257
rtibia 60.6407
rfoot -4.08432 -20.7741
rtoes -0.279145
lfemur -56.0538 18.3976 -24.5157
ltibia 51.2122
lfoot -21.092 22.5488
ltoes 43.7381
849
root 5.45575 15.6092 0.825948 1.9663 49.4889 -13.7058
lowerback 13.294 0.75717 0.975472
upperback 6.73331 1.29538 1.20513
thorax -0.391983 0.717042 0.530649
lowerneck -8.44994 0.993979 -1.4727
upperneck -10.9712 1.77169 1.69547
head -2.06169 1.01466 0.78838
rclavicle -7.23576e-014 2.38542e-014
rhumerus -5.27635 14.8888 4.90914
rradius 25.0754
rwrist -36.9619
rhand -11.9295 5.45501
rfingers 7.12502
rthumb 14.1249 -24.0449
lclavicle -7.23576e-014 2.38542e-014
lhumerus -5.86395 4.47767 5.43987
lradius 24.1191
lwrist -10.1856
lhand 6.26312 59.3196
lfingers 7.12502
lthumb 31.574 86.6101
rfemur -35.556 -15.2321 23.1221
rtibia 62.224
rfoot -0.898467 -19.9458
rtoes -0.203056
lfemur -55.3785 17.8731 -24.4257
ltibia 50.9156
lfoot -20.4213 23.2403
ltoes 40.7992
850
root 5.56905 15.6364 0.872096 1.85791 50.1596 -13.8992
lowerback 13.1988 0.693501 0.749396
upperback 6.78769 1.18747 1.21722
thorax -0.288524 0.659491 0.686858
lowerneck -8.60799 1.1956 -1.55578
upperneck -10.9802 2.04685 1.55761
head -2.04255 1.16139 0.76125
rclavicle 2.98177e-014 3.97569e-015
rhumerus -5.08251 13.837 5.21697
rradius 24.8391
rwrist -35.8091
rhand -12.271 5.4809
rfingers 7.12502
rthumb 13.7959 -24.0416
lclavicle 2.98177e-014 3.97569e-015
lhumerus -5.87556 4.79328 5.67238
lradius 24.2048
lwrist -9.9745
lhand 6.64244 59.4275
lfingers 7.12502
lthumb 31.9353 86.6464
rfemur -36.4677 -15.5204 22.9772
rtibia 63.8288
rfoot 0.676449 -19.6722
rtoes 5.80211
lfemur -54.9736 17.6672 -24.6375
ltibia 50.6834
lfoot -19.3442 23.8359
ltoes 36.9772
851
root 5.68266 15.6605 0.91372 1.83812 50.8398 -13.9813
lowerback 13.1522 0.581186 0.42075
upperback 6.82722 1.00623 1.27559
thorax -0.227175 0.561739 0.957307
lowerneck -8.83319 1.40961 -1.63068
upperneck -10.9064 2.33537 1.40129
head -1.9848 1.31406 0.727991
rclavicle -6.12257e-014 1.74931e-014
rhumerus -4.76942 13.5104 5.66595
rradius 24.87
rwrist -35.6183
rhand -12.2694 5.31958
rfingers 7.12502
rthumb 13.7974 -24.2029
lclavicle -6.12257e-014 1.74931e-014
lhumerus -6.18076 4.44913 5.87016
lradius 24.2602
lwrist -9.18083
lhand 6.65958 59.2882
lfingers 7.12502
lthumb 31.9516 86.5039
rfemur -37.4801 -15.8541 22.826
rtibia 65.4432
rfoot 1.69503 -20.0303
rtoes 14.591
lfemur -54.5723 17.3869 -24.8761
ltibia 50.5378
lfoot -18.8917 23.7741
ltoes 35.9742
852
root 5.79112 15.6736 0.94924 1.55706 51.4303 -14.1972
lowerback 13.3109 0.560759 0.216776
upperback 6.84382 0.961941 1.2949
thorax -0.297303 0.536009 1.09638
lowerneck -8.8645 1.50847 -1.57925
upperneck -10.8231 2.46385 1.38006
head -1.95348 1.37739 0.714013
rclavicle -5.1684e-015 5.08889e-014
rhumerus -4.41002 17.7513 7.05287
rradius 25.4401
rwrist -40.2032
rhand -12.8568 4.21921
rfingers 7.12502
rthumb 13.2313 -25.3409
lclavicle -5.1684e-015 5.08889e-014
lhumerus -6.3748 3.48032 6.05483
lradius 24.3742
lwrist -8.21806
lhand 6.41194 59.2529
lfingers 7.12502
lthumb 31.7158 86.5154
rfemur -38.3655 -16.2489 22.8593
rtibia 67.037
rfoot 3.1542 -20.4761
rtoes 20.2299
lfemur -54.0488 17.0127 -24.841
ltibia 50.5165
lfoot -18.7395 23.6188
ltoes 36.0747
853
root 5.89923 15.6759 0.982209 1.07231 51.9304 -14.7474
lowerback 13.4018 0.594387 0.415057
upperback 6.83539 1.03185 1.27355
thorax -0.352376 0.576926 0.951978
lowerneck -8.80919 1.49598 -1.60664
upperneck -10.8448 2.45761 1.47109
head -1.97161 1.37503 0.746865
rclavicle 1.94809e-014 5.96354e-014
rhumerus -5.13687 14.3471 6.44555
rradius 25.092
rwrist -36.7627
rhand -12.3284 4.74261
rfingers 7.12502
rthumb 13.7405 -24.7837
lclavicle 1.94809e-014 5.96354e-014
lhumerus -6.32181 2.88139 6.25664
lradius 24.5023
lwrist -7.78085
lhand 6.1413 59.1323
lfingers 7.12502
lthumb 31.458 86.4455
rfemur -39.3707 -16.5801 23.2925
rtibia 68.5584
rfoot 5.05495 -20.9232
rtoes 20.7785
lfemur -53.6858 16.7583 -24.6303
ltibia 50.6148
lfoot -18.7243 23.5519
ltoes 34.6757
854
root 6.00836 15.6835 1.01762 0.442848 52.5477 -15.4897
lowerback 13.4842 0.598934 0.799978
upperback 6.79854 1.08625 1.28503
thorax -0.429239 0.61364 0.738383
lowerneck -8.44326 1.41949 -1.52775
upperneck -11.1171 2.341 1.32705
head -2.11644 1.31615 0.683679
rclavicle 1.98785e-014 1.27222e-014
rhumerus -5.32274 15.1648 6.93875
rradius 25.1318
rwrist -37.8855
rhand -12.2349 5.42794
rfingers 7.12502
rthumb 13.8306 -24.0922
lclavicle 1.98785e-014 1.27222e-014
lhumerus -6.16993 2.95404 6.51718
lradius 24.5641
lwrist -7.93128
lhand 6.00551 58.9693
lfingers 7.12502
lthumb 31.3286 86.3076
rfemur -40.3596 -16.8267 23.8804
rtibia 69.8889
rfoot 5.367 -21.8007
rtoes 21.8264
lfemur -53.3745 16.4799 -24.3407
ltibia 50.8286
lfoot -18.9405 23.3779
ltoes 32.713
855
root 6.11551 15.6947 1.05165 0.0546162 53.2769 -15.7302
lowerback 13.8029 0.552216 0.808939
upperback 6.75997 1.03435 1.24606
thorax -0.638546 0.589688 0.695313
lowerneck -8.18994 1.38448 -1.62933
upperneck -11.1332 2.3063 1.46922
head -2.16746 1.29868 0.743901
rclavicle 3.65764e-014 -4.53229e-014
rhumerus -5.43348 14.7377 7.07446
rradius 25.0758
rwrist -37.7385
rhand -12.2325 5.57513
rfingers 7.12502
rthumb 13.8329 -23.9449
lclavicle 3.65764e-014 -4.53229e-014
lhumerus -6.17615 2.8069 6.65102
lradius 24.6479
lwrist -7.96681
lhand 5.99707 59.2381
lfingers 7.12502
lthumb 31.3205 86.578
rfemur -41.1353 -17.2792 24.0442
rtibia 70.9674
rfoot 4.18094 -22.1823
rtoes 22.8391
lfemur -52.9574 16.2596 -24.4367
ltibia 51.102
lfoot -18.4959 23.2722
ltoes 30.469
856
root 6.21846 15.6905 1.08192 -0.574512 53.929 -16.2971
lowerback 14.1605 0.455933 0.969588
upperback 6.75399 0.94005 1.28934
thorax -0.832768 0.547239 0.658973
lowerneck -8.23077 1.42883 -2.01669
upperneck -11.0015 2.42332 1.93207
head -2.13351 1.36468 0.958257
rclavicle -7.55382e-015 1.03368e-014
rhumerus -5.41173 14.0318 7.18509
rradius 25.1123
rwrist -37.2687
rhand -12.3262 4.57487
rfingers 7.12502
rthumb 13.7427 -24.9513
lclavicle -7.55382e-015 1.03368e-014
lhumerus -6.37251 2.00165 6.63046
lradius 24.6814
lwrist -7.47034
lhand 5.76004 59.497
lfingers 7.12502
lthumb 31.0946 86.8803
rfemur -41.9731 -17.5351 24.4805
rtibia 71.7337
rfoot 3.47326 -21.8746
rtoes 20.8963
lfemur -52.6989 16.1119 -24.3617
ltibia 51.3924
lfoot -17.5657 23.5336
ltoes 27.2714
857
root 6.31771 15.677 1.12108 -1.36666 54.4726 -17.1445
lowerback 14.3038 0.384499 1.13595
upperback 6.83782 0.878392 1.40263
thorax -0.819717 0.521354 0.691547
lowerneck -8.31364 1.4386 -2.20846
upperneck -11.0134 2.47261 2.18276
head -2.1324 1.39502 1.0722
rclavicle 1.55052e-014 -3.89618e-014
rhumerus -5.25211 13.2337 7.3023
rradius 25.0447
rwrist -36.6191
rhand -11.8623 4.10062
rfingers 7.12502
rthumb 14.1897 -25.3947
lclavicle 1.55052e-014 -3.89618e-014
lhumerus -6.61579 1.46927 6.58341
lradius 24.648
lwrist -7.24041
lhand 5.51076 59.3101
lfingers 7.12502
lthumb 30.857 86.7387
rfemur -42.9222 -17.1394 25.1543
rtibia 72.248
rfoot 2.23991 -21.8401
rtoes 21.3826
lfemur -52.4838 15.8982 -24.0248
ltibia 51.6601
lfoot -17.2813 23.7983
ltoes 24.8417
858
root 6.42011 15.6756 1.16016 -1.67981 55.1149 -17.2259
lowerback 14.4588 0.35201 0.956187
upperback 7.01481 0.82195 1.33222
thorax -0.717014 0.495034 0.727772
lowerneck -8.26974 1.34954 -1.96291
upperneck -11.0946 2.33559 2.11178
head -2.15792 1.31933 1.00637
rclavicle -3.65764e-014 1.59028e-014
rhumerus -5.10069 13.3173 7.43352
rradius 24.8771
rwrist -36.868
rhand -11.3461 4.3549
rfingers 7.12502
rthumb 14.687 -25.1049
lclavicle -3.65764e-014 1.59028e-014
lhumerus -6.6633 1.57409 6.57712
lradius 24.6127
lwrist -7.60551
lhand 5.35633 58.9706
lfingers 7.12502
lthumb 30.7098 86.4269
rfemur -43.7243 -16.8922 25.3186
rtibia 72.5885
rfoot 1.35658 -21.3593
rtoes 19.5697
lfemur -51.9181 15.5763 -24.106
ltibia 51.8414
lfoot -17.6888 23.601
ltoes 24.6387
